HIERARCHY
ROOT Hips
{
	OFFSET 0.000000 0.000000 0.000000
	CHANNELS 6 Xposition Yposition Zposition Zrotation Yrotation Xrotation 
	JOINT LHipJoint
	{
		OFFSET 0.000000 0.000000 0.000000
		CHANNELS 3 Zrotation Yrotation Xrotation
		JOINT LeftUpLeg
		{
			OFFSET 1.363060 -1.794630 0.839290
			CHANNELS 3 Zrotation Yrotation Xrotation
			JOINT LeftLeg
			{
				OFFSET 2.448110 -6.726130 0.000000
				CHANNELS 3 Zrotation Yrotation Xrotation
				JOINT LeftFoot
				{
					OFFSET 2.562200 -7.039590 0.000000
					CHANNELS 3 Zrotation Yrotation Xrotation
					JOINT LeftToeBase
					{
						OFFSET 0.157640 -0.433110 2.322550
						CHANNELS 3 Zrotation Yrotation Xrotation
						End Site
						{
							OFFSET 0.000000 0.000000 0.000000
						}
					}
				}
			}
		}
	}
	JOINT RHipJoint
	{
		OFFSET 0.000000 0.000000 0.000000
		CHANNELS 3 Zrotation Yrotation Xrotation
		JOINT RightUpLeg
		{
			OFFSET -1.305520 -1.794630 0.839290
			CHANNELS 3 Zrotation Yrotation Xrotation
			JOINT RightLeg
			{
				OFFSET -2.542530 -6.985550 0.000000
				CHANNELS 3 Zrotation Yrotation Xrotation
				JOINT RightFoot
				{
					OFFSET -2.568260 -7.056230 0.000000
					CHANNELS 3 Zrotation Yrotation Xrotation
					JOINT RightToeBase
					{
						OFFSET -0.164730 -0.452590 2.363150
						CHANNELS 3 Zrotation Yrotation Xrotation
						End Site
						{
							OFFSET 0.000000 0.000000 0.000000
						}
					}
				}
			}
		}
	}
	JOINT LowerBack
	{
		OFFSET 0.000000 0.000000 0.000000
		CHANNELS 3 Zrotation Yrotation Xrotation
		JOINT Spine
		{
			OFFSET 0.028270 2.035590 -0.193380
			CHANNELS 3 Zrotation Yrotation Xrotation
			JOINT Spine1
			{
				OFFSET 0.056720 2.048850 -0.042750
				CHANNELS 3 Zrotation Yrotation Xrotation
				JOINT Neck
				{
					OFFSET 0.000000 0.000000 0.000000
					CHANNELS 3 Zrotation Yrotation Xrotation
					JOINT Neck1
					{
						OFFSET -0.054170 1.746240 0.172020
						CHANNELS 3 Zrotation Yrotation Xrotation
						JOINT Head
						{
							OFFSET 0.104070 1.761360 -0.123970
							CHANNELS 3 Zrotation Yrotation Xrotation
							End Site
							{
								OFFSET 0.000000 0.000000 0.000000
							}
						}
					}
				}
				JOINT LeftShoulder
				{
					OFFSET 0.000000 0.000000 0.000000
					CHANNELS 3 Zrotation Yrotation Xrotation
					JOINT LeftArm
					{
						OFFSET 3.362410 1.200890 -0.311210
						CHANNELS 3 Zrotation Yrotation Xrotation
						JOINT LeftForeArm
						{
							OFFSET 4.983000 -0.000000 -0.000000
							CHANNELS 3 Zrotation Yrotation Xrotation
							JOINT LeftHand
							{
								OFFSET 3.483560 -0.000000 -0.000000
								CHANNELS 3 Zrotation Yrotation Xrotation
								JOINT LeftFingerBase
								{
									OFFSET 0.000000 0.000000 0.000000
									CHANNELS 3 Zrotation Yrotation Xrotation
									JOINT LeftHandIndex1
									{
										OFFSET 0.715260 -0.000000 -0.000000
										CHANNELS 3 Zrotation Yrotation Xrotation
										End Site
										{
											OFFSET 0.000000 0.000000 0.000000
										}
									}
								}
								JOINT LThumb
								{
									OFFSET 0.000000 0.000000 0.000000
									CHANNELS 3 Zrotation Yrotation Xrotation
									End Site
									{
										OFFSET 0.000000 0.000000 0.000000
									}
								}
							}
						}
					}
				}
				JOINT RightShoulder
				{
					OFFSET 0.000000 0.000000 0.000000
					CHANNELS 3 Zrotation Yrotation Xrotation
					JOINT RightArm
					{
						OFFSET -3.136600 1.374050 -0.404650
						CHANNELS 3 Zrotation Yrotation Xrotation
						JOINT RightForeArm
						{
							OFFSET -5.241900 -0.000000 -0.000000
							CHANNELS 3 Zrotation Yrotation Xrotation
							JOINT RightHand
							{
								OFFSET -3.444170 -0.000000 -0.000000
								CHANNELS 3 Zrotation Yrotation Xrotation
								JOINT RightFingerBase
								{
									OFFSET 0.000000 0.000000 0.000000
									CHANNELS 3 Zrotation Yrotation Xrotation
									JOINT RightHandIndex1
									{
										OFFSET -0.622530 -0.000000 -0.000000
										CHANNELS 3 Zrotation Yrotation Xrotation
										End Site
										{
											OFFSET 0.000000 0.000000 0.000000
										}
									}
								}
								JOINT RThumb
								{
									OFFSET 0.000000 0.000000 0.000000
									CHANNELS 3 Zrotation Yrotation Xrotation
									End Site
									{
										OFFSET 0.000000 0.000000 0.000000
									}
								}
							}
						}
					}
				}
			}
		}
	}
}
MOTION
Frames: 7
Frame Time: 0.008333
-9.748154 17.205463 0.687773 66.739780 85.124167 90.848017 -11.949371 5.369627 2.789203 -9.205418 2.896206 -3.037732 -1.139639 0.770532 13.987118 0.324378 -7.256506 25.864581 -3.860900 -0.000000 -68.639600 8.625876 -1.207024 3.891894 9.007981 -0.893194 -43.750527 3.345157 -0.423124 17.283060 0.367674 2.516087 -0.366068 -0.133600 0.000000 -39.936901 4.101159 -2.516258 -7.001906 0.386780 -3.026583 -3.810818 -6.228612 -2.921530 1.785191 4.065242 -14.491156 -8.145993 -4.040147 -0.308200 -0.136072 0.000000 0.000000 0.000000 11.208542 9.689987 -0.892071 -59.195770 -13.180690 31.182454 -178.639830 -66.514226 179.991593 1.202393 1.822672 0.017534 -0.094819 0.450949 0.000000 0.000000 0.000000 0.000000 0.000000 0.000000 0.000000 10.280583 -10.829922 -0.542908 76.372837 0.461714 14.571347 0.832269 71.834445 0.013547 2.441262 3.523652 0.081690 0.003146 -0.253647 -0.000000 0.000000 0.000000 0.000000 0.000000 0.000000 0.000000 
-9.544303 17.137367 0.718393 63.773325 84.881873 87.775520 -11.920620 5.471660 2.758371 -9.189697 3.219105 -2.865437 -1.120824 0.821884 15.007417 0.332907 -7.746285 25.813291 -4.110600 0.000000 -66.399201 8.676762 -1.106755 3.902807 8.582281 -0.234399 -44.653683 3.037824 -0.786256 21.121736 0.103129 1.798589 -2.632862 -0.216800 0.000000 -35.854600 4.074765 -2.480160 -6.988501 0.358504 -2.993633 -3.808823 -6.309014 -2.886610 1.762004 3.761649 -14.296304 -8.216410 -4.162643 -0.316425 -0.165229 0.000000 0.000000 0.000000 10.774282 9.740941 -0.815975 -58.518451 -13.580942 30.627935 -178.591570 -66.582645 179.990054 1.429151 1.399077 0.014717 -0.108443 0.470356 0.000000 0.000000 0.000000 0.000000 0.000000 0.000000 0.000000 10.612151 -10.590682 -0.472581 76.001307 0.654270 14.479273 0.891444 70.717814 0.012288 2.087605 3.510440 0.069501 0.010145 -0.249551 -0.000000 0.000000 0.000000 0.000000 0.000000 0.000000 0.000000 
-9.345572 17.075427 0.745882 62.220870 84.700865 86.050841 -11.903527 5.547813 2.714229 -9.101559 3.517067 -2.771006 -1.081099 0.879354 16.236950 0.348558 -8.132859 25.721717 -4.306100 0.000000 -63.647300 8.730421 -0.995103 3.837809 8.216124 0.217968 -45.346560 2.745004 -1.136417 24.977261 -0.152040 1.175561 -4.942991 -0.228500 -0.000000 -32.398700 4.047041 -2.472441 -6.883549 0.334906 -2.985503 -3.793135 -6.369887 -2.878800 1.721175 3.475534 -14.071895 -8.264312 -4.281134 -0.324272 -0.190270 0.000000 0.000000 0.000000 10.381667 9.737027 -0.744092 -58.133017 -13.886087 30.122964 -178.569024 -66.916388 179.987747 1.750594 1.015170 0.011029 -0.124379 0.487955 0.000000 0.000000 0.000000 0.000000 0.000000 0.000000 0.000000 10.937334 -10.344445 -0.396430 75.623853 0.944696 14.380068 0.952436 69.482229 0.010699 1.630177 3.515949 0.054207 0.018264 -0.245537 -0.000000 0.000000 0.000000 0.000000 0.000000 0.000000 0.000000 
-9.151854 17.021633 0.769533 61.912302 84.606934 85.517661 -11.911504 5.594541 2.652083 -8.915378 3.814398 -2.789611 -1.019138 0.941627 17.678133 0.372956 -8.381540 25.579763 -4.429900 0.000000 -60.499600 8.776412 -0.894760 3.709194 7.956535 0.459435 -45.751017 2.492534 -1.445021 28.538528 -0.379883 0.649696 -7.105300 -0.187600 0.000000 -29.988100 4.034684 -2.491123 -6.697684 0.320112 -3.001652 -3.766227 -6.408575 -2.897729 1.663990 3.207628 -13.822757 -8.287647 -4.393840 -0.331617 -0.210422 0.000000 0.000000 0.000000 10.030863 9.675906 -0.677303 -58.067449 -14.084745 29.695203 -178.574978 -67.527316 179.984558 2.171229 0.703240 0.006769 -0.142517 0.502234 0.000000 0.000000 0.000000 0.000000 0.000000 0.000000 0.000000 11.247361 -10.097769 -0.315302 75.242775 1.332163 14.274552 1.014226 68.139271 0.008844 1.082857 3.534858 0.036106 0.027284 -0.241529 -0.000000 0.000000 0.000000 0.000000 0.000000 0.000000 0.000000 
-8.962807 16.977520 0.789053 62.770928 84.610078 86.119393 -11.951279 5.609237 2.573316 -8.622503 4.118093 -2.952129 -0.935157 1.005880 19.313671 0.407193 -8.443754 25.382132 -4.458299 0.000000 -57.168300 8.805456 -0.826827 3.530476 7.839417 0.486846 -45.847672 2.298710 -1.699186 31.600477 -0.567820 0.235768 -9.012868 -0.115400 0.000000 -28.780200 4.048684 -2.532765 -6.449830 0.316076 -3.040021 -3.732058 -6.426028 -2.941274 1.591889 2.959230 -13.548436 -8.283545 -4.499450 -0.338408 -0.224532 0.000000 0.000000 0.000000 9.714525 9.560469 -0.615018 -58.319557 -14.179743 29.364283 -178.610414 -68.421402 179.980433 2.690272 0.488784 0.002329 -0.162546 0.511991 0.000000 0.000000 0.000000 0.000000 0.000000 0.000000 0.000000 11.536739 -9.850377 -0.231351 74.863094 1.799658 14.155059 1.075279 66.715592 0.006823 0.471732 3.559024 0.015697 0.036793 -0.237470 -0.000000 0.000000 0.000000 0.000000 0.000000 0.000000 0.000000 
-8.777850 16.943974 0.804562 64.839896 84.706911 87.921246 -12.022893 5.589147 2.482501 -8.228702 4.424696 -3.281677 -0.830732 1.068349 21.113689 0.451435 -8.270703 25.121828 -4.368100 -0.000000 -53.906500 8.811105 -0.806582 3.317195 7.878218 0.310002 -45.656812 2.170696 -1.896720 34.048949 -0.711823 -0.062388 -10.611472 -0.032200 -0.000000 -28.768701 4.093692 -2.593650 -6.163418 0.322985 -3.098033 -3.694784 -6.425289 -3.006579 1.508019 2.732249 -13.256017 -8.251490 -4.596266 -0.344569 -0.231920 0.000000 0.000000 0.000000 9.421322 9.394532 -0.557040 -58.860819 -14.180918 29.137224 -178.675197 -69.592893 179.975397 3.300404 0.388544 -0.000708 -0.183793 0.516462 0.000000 0.000000 0.000000 0.000000 0.000000 0.000000 0.000000 11.801278 -9.609097 -0.147271 74.491772 2.329851 14.024214 1.134286 65.243503 0.004736 -0.176160 3.581365 -0.006120 0.046431 -0.233344 -0.000000 0.000000 0.000000 0.000000 0.000000 0.000000 0.000000 
-8.596373 16.921239 0.816703 68.288875 84.878685 91.111384 -12.117660 5.531724 2.385769 -7.757441 4.719211 -3.783502 -0.708646 1.125039 23.035537 0.505111 -7.818298 24.791404 -4.139100 -0.000000 -50.965700 8.793101 -0.840597 3.083624 8.063036 -0.056600 -45.221796 2.107466 -2.042359 35.850847 -0.814028 -0.249064 -11.894214 0.047000 -0.000000 -29.761300 4.165320 -2.670425 -5.860198 0.338696 -3.172810 -3.657726 -6.411452 -3.090299 1.416080 2.529160 -12.951911 -8.191463 -4.682657 -0.350040 -0.231972 0.000000 0.000000 0.000000 9.140546 9.184827 -0.502717 -59.639718 -14.106784 29.010754 -178.767512 -71.027750 179.969560 3.988894 0.409945 -0.000454 -0.205405 0.515365 0.000000 0.000000 0.000000 0.000000 0.000000 0.000000 0.000000 12.038887 -9.379324 -0.066644 74.138571 2.898832 13.885329 1.189807 63.763476 0.002684 -0.830518 3.595459 -0.028347 0.055804 -0.229173 -0.000000 0.000000 0.000000 0.000000 0.000000 0.000000 0.000000 
